<svg xmlns="http://www.w3.org/2000/svg" xmlns:xlink="http://www.w3.org/1999/xlink" width="500" zoomAndPan="magnify" viewBox="0 0 375 374.999991" height="500" preserveAspectRatio="xMidYMid meet" version="1.2"><defs><clipPath id="5f3190aa13"><path d="M 131.289062 29.976562 L 318.789062 29.976562 L 318.789062 375 L 131.289062 375 Z M 131.289062 29.976562 "/></clipPath><clipPath id="e20129023f"><path d="M 50.671875 105.03125 L 163.171875 105.03125 L 163.171875 330 L 50.671875 330 Z M 50.671875 105.03125 "/></clipPath><clipPath id="e332c0c255"><path d="M 163.171875 133.53125 L 163.171875 301.230469 C 163.171875 308.789062 160.167969 316.039062 154.824219 321.382812 C 149.480469 326.726562 142.230469 329.730469 134.671875 329.730469 L 79.171875 329.730469 C 71.613281 329.730469 64.363281 326.726562 59.019531 321.382812 C 53.675781 316.039062 50.671875 308.789062 50.671875 301.230469 L 50.671875 133.53125 C 50.671875 125.972656 53.675781 118.722656 59.019531 113.378906 C 64.363281 108.03125 71.613281 105.03125 79.171875 105.03125 L 134.671875 105.03125 C 142.230469 105.03125 149.480469 108.03125 154.824219 113.378906 C 160.167969 118.722656 163.171875 125.972656 163.171875 133.53125 Z M 163.171875 133.53125 "/></clipPath><clipPath id="7aa611d03a"><path d="M 59.21875 104.882812 L 164.820312 104.882812 L 164.820312 329.433594 L 59.21875 329.433594 Z M 59.21875 104.882812 "/></clipPath><clipPath id="d16b0fc0b7"><path d="M 119.441406 46 L 225.941406 46 L 225.941406 109 L 119.441406 109 Z M 119.441406 46 "/></clipPath></defs><g id="5875e474bc"><g clip-rule="nonzero" clip-path="url(#5f3190aa13)"><path style=" stroke:none;fill-rule:nonzero;fill:#ffffff;fill-opacity:1;" d="M 131.289062 29.976562 L 318.789062 29.976562 L 318.789062 404.976562 L 131.289062 404.976562 Z M 131.289062 29.976562 "/></g><g style="fill:#5214c6;fill-opacity:1;"><g transform="translate(117.8926, 329.694293)"><path style="stroke:none" d="M 142.15625 -112.203125 C 142.15625 -125.273438 139.976562 -136.847656 135.625 -146.921875 C 131.269531 -157.003906 123.828125 -164.859375 113.296875 -170.484375 C 102.765625 -176.117188 88.238281 -178.9375 69.71875 -178.9375 L 69.71875 -45.75 C 88.238281 -45.75 102.765625 -48.5625 113.296875 -54.1875 C 123.828125 -59.820312 131.269531 -67.628906 135.625 -77.609375 C 139.976562 -87.597656 142.15625 -99.128906 142.15625 -112.203125 Z M 18.515625 -224.6875 L 83.875 -224.6875 C 99.3125 -224.6875 113.835938 -221.914062 127.453125 -216.375 C 141.066406 -210.84375 153.09375 -203.082031 163.53125 -193.09375 C 173.976562 -183.101562 182.148438 -171.253906 188.046875 -157.546875 C 193.953125 -143.835938 196.90625 -128.816406 196.90625 -112.484375 C 196.90625 -96.140625 193.953125 -81.113281 188.046875 -67.40625 C 182.148438 -53.695312 173.976562 -41.800781 163.53125 -31.71875 C 153.09375 -21.644531 141.066406 -13.835938 127.453125 -8.296875 C 113.835938 -2.765625 99.3125 0 83.875 0 L 18.515625 0 Z M 18.515625 -224.6875 "/></g></g><g clip-rule="nonzero" clip-path="url(#e20129023f)"><g clip-rule="nonzero" clip-path="url(#e332c0c255)"><path style=" stroke:none;fill-rule:nonzero;fill:#ffffff;fill-opacity:1;" d="M 50.671875 105.03125 L 163.171875 105.03125 L 163.171875 329.589844 L 50.671875 329.589844 Z M 50.671875 105.03125 "/></g></g><g clip-rule="nonzero" clip-path="url(#7aa611d03a)"><path style=" stroke:none;fill-rule:nonzero;fill:#5214c6;fill-opacity:1;" d="M 61.972656 216.480469 L 61.988281 216.257812 C 62.644531 210.5 64.832031 207.171875 67.472656 205.023438 C 60.6875 197.925781 56.980469 184.039062 61.753906 170.816406 C 65.941406 159.222656 76.777344 156.246094 82.859375 155.5 C 82.40625 151.902344 82.839844 146.382812 87.007812 139.6875 C 92.777344 130.417969 102.25 130.589844 108.105469 131.4375 C 107.570312 125.929688 108.96875 120.820312 112.25 116.457031 C 118.222656 108.503906 128.96875 104.882812 136.425781 104.882812 C 146.265625 104.882812 164.640625 112.882812 164.640625 132.164062 C 164.640625 132.261719 164.628906 132.347656 164.628906 132.445312 L 164.628906 306.382812 C 164.664062 312.007812 162.226562 317.414062 157.757812 321.609375 C 152.574219 326.480469 145.082031 329.363281 137.828125 329.363281 C 137.210938 329.363281 136.597656 329.339844 135.988281 329.296875 C 124.890625 328.539062 117.535156 321.199219 115.859375 309.488281 C 106.664062 308.386719 103.511719 300.253906 102.109375 294.789062 C 97.414062 294.605469 93.253906 292.859375 90.195312 289.742188 C 87.101562 286.589844 85.277344 282.140625 85.058594 277.421875 C 72.847656 275.660156 65.558594 268.492188 64.410156 256.984375 C 63.546875 248.246094 65.632812 240.957031 70.625 235.253906 C 65.796875 231.878906 61.527344 226.507812 61.972656 216.480469 Z M 152.355469 310.707031 C 154.003906 310.707031 155.339844 309.371094 155.339844 307.722656 C 155.339844 306.078125 154.003906 304.738281 152.355469 304.738281 C 150.710938 304.738281 149.371094 306.078125 149.371094 307.722656 C 149.371094 309.371094 150.710938 310.707031 152.355469 310.707031 Z M 153.773438 313.347656 L 153.773438 316.445312 C 155.25 314.964844 156.800781 312.878906 157.601562 310.199219 C 156.863281 311.75 155.46875 312.917969 153.773438 313.347656 Z M 77.382812 231.769531 L 81.6875 234.011719 L 77.957031 237.121094 C 74.382812 240.101562 69.757812 245.339844 70.847656 256.34375 C 71.78125 265.667969 77.582031 270.558594 88.589844 271.285156 L 91.957031 271.511719 L 91.589844 274.867188 C 91.15625 278.84375 92.359375 282.710938 94.8125 285.210938 C 96.628906 287.0625 99.058594 288.105469 101.9375 288.296875 L 102.953125 254.539062 L 93.5625 246.011719 C 92.363281 246.824219 90.917969 247.300781 89.363281 247.300781 C 85.234375 247.300781 81.871094 243.945312 81.871094 239.8125 C 81.871094 235.683594 85.234375 232.324219 89.363281 232.324219 C 93.492188 232.324219 96.851562 235.683594 96.851562 239.8125 C 96.851562 241.363281 96.378906 242.808594 95.570312 244.003906 L 105.828125 253.320312 L 104.769531 288.230469 L 107.207031 288.011719 L 107.816406 290.796875 C 109.238281 297.257812 110.984375 302.621094 117.167969 303.105469 L 117.167969 273.898438 L 121.261719 270.054688 L 121.261719 255.21875 L 112.261719 246.339844 C 111.316406 247.003906 110.171875 247.402344 108.933594 247.402344 C 105.726562 247.402344 103.113281 244.789062 103.113281 241.582031 C 103.113281 238.371094 105.726562 235.761719 108.933594 235.761719 C 112.140625 235.761719 114.753906 238.371094 114.753906 241.582031 C 114.753906 242.519531 114.507812 243.398438 114.109375 244.183594 L 124.097656 254.035156 L 124.097656 267.394531 L 129.460938 262.363281 L 129.460938 242.109375 C 126.941406 241.472656 125.058594 239.203125 125.058594 236.484375 C 125.058594 233.277344 127.671875 230.667969 130.878906 230.667969 C 134.085938 230.667969 136.699219 233.277344 136.699219 236.484375 C 136.699219 239.203125 134.816406 241.472656 132.296875 242.109375 L 132.296875 263.589844 L 120 275.125 L 120 303.359375 C 120.296875 303.476562 120.566406 303.644531 120.8125 303.847656 C 120.859375 303.886719 120.914062 303.917969 120.957031 303.957031 C 120.96875 303.96875 120.980469 303.984375 120.992188 303.992188 C 121.4375 304.40625 121.761719 304.949219 121.917969 305.566406 C 121.933594 305.632812 121.9375 305.703125 121.949219 305.773438 C 121.976562 305.90625 122.007812 306.039062 122.015625 306.179688 C 122.445312 313.402344 125.171875 318.46875 129.835938 321.011719 L 135.53125 315.753906 L 135.53125 301.8125 C 133.011719 301.171875 131.128906 298.90625 131.128906 296.1875 C 131.128906 292.980469 133.742188 290.367188 136.949219 290.367188 C 140.160156 290.367188 142.769531 292.980469 142.769531 296.1875 C 142.769531 298.90625 140.890625 301.171875 138.367188 301.8125 L 138.367188 317 L 132.734375 322.195312 C 133.886719 322.527344 135.113281 322.753906 136.433594 322.847656 C 141.46875 323.179688 146.78125 321.652344 150.941406 318.78125 L 150.941406 313.347656 C 148.417969 312.710938 146.539062 310.441406 146.539062 307.722656 C 146.539062 304.515625 149.148438 301.90625 152.359375 301.90625 C 155.359375 301.90625 157.8125 304.203125 158.117188 307.125 C 158.128906 306.882812 158.160156 306.652344 158.160156 306.402344 L 158.160156 278.757812 L 155.582031 281.550781 L 139.742188 281.550781 C 139.078125 284.179688 136.707031 286.144531 133.875 286.144531 C 130.527344 286.144531 127.800781 283.417969 127.800781 280.074219 C 127.800781 276.726562 130.527344 274.003906 133.875 274.003906 C 136.707031 274.003906 139.078125 275.960938 139.742188 278.59375 L 154.289062 278.59375 L 158.160156 274.398438 L 158.160156 256.492188 L 152.761719 256.492188 C 152.101562 259.40625 149.5 261.59375 146.390625 261.59375 C 142.785156 261.59375 139.847656 258.65625 139.847656 255.046875 C 139.847656 251.4375 142.785156 248.5 146.390625 248.5 C 149.5 248.5 152.101562 250.6875 152.761719 253.601562 L 158.160156 253.601562 L 158.160156 211.160156 C 154.867188 211.136719 151.738281 211.132812 148.460938 211.132812 L 148.460938 225.4375 C 150.308594 225.855469 151.695312 227.503906 151.695312 229.480469 C 151.695312 231.769531 149.832031 233.632812 147.542969 233.632812 C 145.253906 233.632812 143.390625 231.769531 143.390625 229.480469 C 143.390625 227.503906 144.777344 225.855469 146.628906 225.4375 L 146.628906 211.753906 C 143.292969 215.109375 140.046875 218.464844 136.789062 221.84375 L 135.527344 223.148438 L 134.207031 221.878906 L 135.464844 220.570312 C 137.292969 218.675781 139.117188 216.789062 140.953125 214.90625 L 126.652344 214.90625 C 126.234375 216.753906 124.585938 218.140625 122.609375 218.140625 C 120.320312 218.140625 118.457031 216.277344 118.457031 213.988281 C 118.457031 211.699219 120.320312 209.832031 122.609375 209.832031 C 124.585938 209.832031 126.234375 211.222656 126.652344 213.070312 L 142.761719 213.070312 C 143.90625 211.902344 145.046875 210.734375 146.210938 209.566406 L 146.480469 209.296875 L 146.863281 209.296875 C 150.753906 209.296875 154.332031 209.296875 158.160156 209.324219 L 158.160156 204.820312 C 147.613281 204.734375 137.035156 204.765625 126.660156 204.917969 C 126.242188 206.773438 124.589844 208.167969 122.609375 208.167969 C 120.320312 208.167969 118.457031 206.300781 118.457031 204.011719 C 118.457031 201.722656 120.320312 199.859375 122.609375 199.859375 C 124.582031 199.859375 126.226562 201.238281 126.652344 203.082031 C 137.035156 202.933594 147.613281 202.90625 158.160156 202.988281 L 158.160156 195.070312 L 155.523438 197.925781 L 145.691406 197.925781 C 145.28125 199.558594 143.816406 200.773438 142.054688 200.773438 C 139.976562 200.773438 138.289062 199.085938 138.289062 197.007812 C 138.289062 194.929688 139.976562 193.238281 142.054688 193.238281 C 143.816406 193.238281 145.28125 194.457031 145.691406 196.089844 L 154.71875 196.089844 L 158.160156 192.363281 L 158.160156 182.085938 L 153.609375 179.941406 L 135.707031 186.59375 L 111.804688 175.320312 C 111.195312 176.105469 110.378906 176.710938 109.417969 177.054688 C 108.828125 177.269531 108.222656 177.371094 107.617188 177.371094 C 106.839844 177.371094 106.066406 177.203125 105.347656 176.859375 C 102.691406 175.609375 101.546875 172.425781 102.800781 169.769531 C 103.40625 168.484375 104.480469 167.507812 105.816406 167.027344 C 107.15625 166.546875 108.605469 166.613281 109.890625 167.222656 C 111.179688 167.832031 112.152344 168.902344 112.632812 170.242188 C 112.976562 171.203125 113.03125 172.21875 112.8125 173.191406 L 135.8125 184.042969 L 150.628906 178.535156 L 136.652344 171.941406 L 132.640625 160.582031 L 114.519531 152.039062 C 113.5 153.335938 111.964844 154.101562 110.347656 154.101562 C 109.589844 154.101562 108.816406 153.9375 108.085938 153.59375 C 105.429688 152.339844 104.289062 149.15625 105.539062 146.503906 L 105.539062 146.5 C 106.792969 143.84375 109.976562 142.707031 112.632812 143.957031 C 114.921875 145.039062 116.078125 147.550781 115.550781 149.925781 L 134.53125 158.878906 L 138.542969 170.234375 L 158.160156 179.484375 L 158.160156 150.839844 C 156.976562 152.144531 155.800781 153.140625 154.808594 153.855469 C 154.273438 154.238281 149.539062 157.578125 146.617188 156.609375 C 144.921875 156.042969 144.007812 154.210938 144.574219 152.515625 C 145.023438 151.160156 146.289062 150.300781 147.640625 150.300781 C 147.664062 150.300781 147.6875 150.300781 147.710938 150.304688 C 148.832031 149.960938 158.066406 146.597656 158.160156 132.371094 L 158.160156 132.160156 C 158.160156 132.140625 158.164062 132.125 158.164062 132.109375 C 158.128906 117.746094 145.0625 112.375 138.304688 111.5 L 140.386719 113.421875 L 140.386719 128.929688 C 142.9375 129.476562 144.863281 131.742188 144.863281 134.457031 C 144.863281 137.570312 142.328125 140.105469 139.210938 140.105469 C 136.09375 140.105469 133.558594 137.570312 133.558594 134.457031 C 133.558594 131.742188 135.484375 129.476562 138.035156 128.929688 L 138.035156 114.453125 L 134.785156 111.453125 C 128.886719 111.9375 121.472656 114.949219 117.421875 120.339844 C 114.582031 124.121094 113.808594 128.601562 115.0625 133.648438 L 118.816406 137.296875 C 120.097656 138.542969 120.125 140.589844 118.878906 141.875 C 118.246094 142.523438 117.402344 142.851562 116.5625 142.851562 C 115.75 142.851562 114.933594 142.546875 114.304688 141.9375 L 110.71875 138.453125 C 110.398438 138.394531 110.0625 138.335938 109.695312 138.265625 C 103.539062 137.128906 96.628906 136.472656 92.5 143.105469 C 88.023438 150.300781 89.164062 155.128906 89.65625 156.515625 L 92.984375 159.328125 C 94.351562 160.480469 94.519531 162.523438 93.367188 163.886719 C 92.726562 164.644531 91.8125 165.035156 90.894531 165.035156 C 90.15625 165.035156 89.417969 164.785156 88.808594 164.273438 L 85.816406 161.742188 C 82.445312 161.855469 71.921875 163.003906 68.097656 172.429688 L 96.128906 172.429688 L 112 188.777344 L 112 205.304688 C 114.78125 205.9375 116.875 208.421875 116.875 211.394531 C 116.875 214.839844 114.066406 217.648438 110.617188 217.648438 C 107.171875 217.648438 104.363281 214.839844 104.363281 211.394531 C 104.363281 208.421875 106.449219 205.9375 109.234375 205.304688 L 109.234375 189.898438 L 94.960938 175.195312 L 67.15625 175.195312 C 65.171875 182.375 66.148438 189.398438 68.421875 194.644531 L 90.941406 194.644531 L 100.132812 205.257812 L 100.132812 215.410156 C 102.917969 216.042969 105.007812 218.527344 105.007812 221.5 C 105.007812 224.949219 102.199219 227.753906 98.75 227.753906 C 95.304688 227.753906 92.496094 224.949219 92.496094 221.5 C 92.496094 218.527344 94.585938 216.042969 97.371094 215.410156 L 97.371094 206.289062 L 89.679688 197.410156 L 69.828125 197.410156 C 71.089844 199.515625 72.558594 201.152344 74.078125 202.175781 L 83.289062 202.175781 C 85.074219 202.175781 86.523438 203.625 86.523438 205.410156 C 86.523438 207.199219 85.074219 208.648438 83.289062 208.648438 L 73.859375 208.648438 C 70.742188 210.148438 69.007812 211.980469 68.429688 216.882812 C 68.09375 225.210938 71.605469 228.757812 77.382812 231.769531 Z M 94.015625 239.8125 C 94.015625 237.246094 91.929688 235.160156 89.363281 235.160156 C 86.792969 235.160156 84.707031 237.246094 84.707031 239.8125 C 84.707031 242.378906 86.792969 244.46875 89.363281 244.46875 C 91.929688 244.46875 94.015625 242.378906 94.015625 239.8125 Z M 111.917969 241.582031 C 111.917969 239.933594 110.582031 238.59375 108.933594 238.59375 C 107.289062 238.59375 105.949219 239.933594 105.949219 241.582031 C 105.949219 243.226562 107.289062 244.566406 108.933594 244.566406 C 110.582031 244.566406 111.917969 243.226562 111.917969 241.582031 Z M 130.878906 239.46875 C 132.523438 239.46875 133.863281 238.132812 133.863281 236.484375 C 133.863281 234.839844 132.523438 233.5 130.878906 233.5 C 129.230469 233.5 127.894531 234.839844 127.894531 236.484375 C 127.894531 238.132812 129.230469 239.46875 130.878906 239.46875 Z M 136.949219 299.171875 C 138.59375 299.171875 139.933594 297.835938 139.933594 296.1875 C 139.933594 294.539062 138.59375 293.203125 136.949219 293.203125 C 135.300781 293.203125 133.964844 294.539062 133.964844 296.1875 C 133.964844 297.835938 135.300781 299.171875 136.949219 299.171875 Z M 136.988281 280.074219 C 136.988281 278.355469 135.589844 276.960938 133.875 276.960938 C 132.15625 276.960938 130.757812 278.355469 130.757812 280.074219 C 130.757812 281.789062 132.15625 283.183594 133.875 283.183594 C 135.589844 283.183594 136.988281 281.789062 136.988281 280.074219 Z M 150.042969 255.046875 C 150.042969 253.03125 148.40625 251.390625 146.386719 251.390625 C 144.371094 251.390625 142.734375 253.03125 142.734375 255.046875 C 142.734375 257.0625 144.371094 258.703125 146.386719 258.703125 C 148.40625 258.703125 150.042969 257.0625 150.042969 255.046875 Z M 147.542969 227.160156 C 146.265625 227.160156 145.222656 228.203125 145.222656 229.484375 C 145.222656 230.761719 146.265625 231.800781 147.542969 231.800781 C 148.820312 231.800781 149.863281 230.761719 149.863281 229.484375 C 149.863281 228.203125 148.820312 227.160156 147.542969 227.160156 Z M 124.929688 213.988281 C 124.929688 212.710938 123.886719 211.671875 122.609375 211.671875 C 121.332031 211.671875 120.289062 212.710938 120.289062 213.988281 C 120.289062 215.269531 121.332031 216.308594 122.609375 216.308594 C 123.886719 216.308594 124.929688 215.269531 124.929688 213.988281 Z M 124.929688 204.011719 C 124.929688 202.734375 123.886719 201.691406 122.609375 201.691406 C 121.332031 201.691406 120.289062 202.734375 120.289062 204.011719 C 120.289062 205.289062 121.332031 206.332031 122.609375 206.332031 C 123.886719 206.332031 124.929688 205.289062 124.929688 204.011719 Z M 143.984375 197.007812 C 143.984375 195.941406 143.117188 195.074219 142.054688 195.074219 C 140.988281 195.074219 140.121094 195.941406 140.121094 197.007812 C 140.121094 198.070312 140.988281 198.9375 142.054688 198.9375 C 143.117188 198.9375 143.984375 198.074219 143.984375 197.007812 Z M 110.417969 171.035156 C 110.152344 170.289062 109.605469 169.6875 108.886719 169.351562 C 108.484375 169.160156 108.050781 169.066406 107.621094 169.066406 C 107.28125 169.066406 106.941406 169.125 106.613281 169.242188 C 105.863281 169.511719 105.265625 170.054688 104.925781 170.773438 C 104.226562 172.253906 104.867188 174.03125 106.351562 174.734375 C 107.066406 175.066406 107.871094 175.113281 108.625 174.839844 C 109.371094 174.574219 109.96875 174.03125 110.308594 173.308594 C 110.648438 172.59375 110.6875 171.785156 110.417969 171.035156 Z M 111.628906 146.082031 C 111.21875 145.890625 110.789062 145.800781 110.363281 145.800781 C 109.246094 145.800781 108.175781 146.429688 107.667969 147.503906 C 106.96875 148.988281 107.605469 150.765625 109.089844 151.464844 C 110.574219 152.164062 112.351562 151.527344 113.050781 150.042969 C 113.75 148.558594 113.113281 146.785156 111.628906 146.082031 Z M 139.210938 131.15625 C 137.394531 131.15625 135.910156 132.640625 135.910156 134.457031 C 135.910156 136.273438 137.394531 137.753906 139.210938 137.753906 C 141.027344 137.753906 142.507812 136.273438 142.507812 134.457031 C 142.507812 132.640625 141.027344 131.15625 139.210938 131.15625 Z M 110.617188 207.902344 C 108.695312 207.902344 107.125 209.46875 107.125 211.394531 C 107.125 213.320312 108.695312 214.886719 110.617188 214.886719 C 112.542969 214.886719 114.109375 213.320312 114.109375 211.394531 C 114.109375 209.46875 112.542969 207.902344 110.617188 207.902344 Z M 98.753906 218.007812 C 96.828125 218.007812 95.261719 219.574219 95.261719 221.5 C 95.261719 223.425781 96.828125 224.992188 98.753906 224.992188 C 100.679688 224.992188 102.246094 223.425781 102.246094 221.5 C 102.246094 219.574219 100.679688 218.007812 98.753906 218.007812 Z M 98.753906 218.007812 "/></g><g clip-rule="nonzero" clip-path="url(#d16b0fc0b7)"><path style=" stroke:none;fill-rule:evenodd;fill:#5214c6;fill-opacity:1;" d="M 188.558594 48.304688 C 184.425781 49.777344 180.207031 51.332031 176.554688 54.007812 C 170.480469 58.457031 165.117188 66.382812 165.246094 74.347656 C 165.285156 76.738281 165.621094 79.128906 166.238281 81.40625 C 166.277344 81.550781 166.550781 82.308594 166.886719 83.199219 C 171.480469 76.984375 178.648438 69.730469 185.722656 65.535156 C 193.214844 60.792969 199.980469 59.820312 200.140625 59.773438 C 200 59.832031 193.378906 61.578125 186.449219 66.84375 C 181.949219 70.269531 177.898438 74.175781 174.171875 78.574219 C 172.421875 80.636719 170.742188 82.777344 169.152344 84.988281 C 167.734375 86.957031 166.035156 89.039062 164.878906 91.175781 C 164.671875 91.558594 164.464844 91.957031 164.265625 92.363281 C 164.121094 92.042969 163.96875 91.730469 163.8125 91.425781 C 163.007812 89.847656 161.789062 88.316406 160.78125 86.867188 C 159.652344 85.238281 158.453125 83.667969 157.199219 82.152344 C 154.527344 78.921875 151.601562 76.066406 148.324219 73.578125 C 143.28125 69.753906 138.375 68.558594 138.269531 68.515625 C 138.390625 68.550781 143.425781 69.164062 148.902344 72.589844 C 154.085938 75.609375 159.253906 80.917969 162.523438 85.492188 C 162.800781 84.820312 163.027344 84.246094 163.058594 84.140625 C 163.582031 82.425781 163.898438 80.632812 163.988281 78.839844 C 164.296875 72.878906 160.5 67.035156 156.070312 63.808594 C 153.410156 61.867188 150.296875 60.777344 147.242188 59.742188 C 139.703125 57.183594 127.476562 59.398438 119.472656 63.980469 C 121.246094 64.929688 122.753906 65.941406 124.367188 66.96875 C 135.875 74.300781 139.378906 98.699219 158.203125 89.871094 C 160.109375 92.554688 161.292969 96.507812 161.585938 100.019531 C 160.480469 105.421875 161.515625 109.910156 167.433594 108.289062 C 166.621094 102.9375 168.597656 94.1875 172.460938 88.925781 C 197.214844 100.179688 203.066406 67.441406 218.808594 57.292969 C 221.015625 55.871094 223.082031 54.472656 225.5 53.148438 C 215.011719 47.261719 198.765625 44.660156 188.558594 48.304688 "/></g></g></svg>